<svg width="90" height="80" viewBox="0 0 90 80" fill="none" xmlns="http://www.w3.org/2000/svg">
<path d="M9.74561 19.9469L9.99581 15.7683L5.03012 15.471L5.58574 20.4143L5.58575 20.4145L5.58577 20.4146L5.58594 20.4161L5.58676 20.4234L5.59024 20.4546L5.60431 20.5819C5.61674 20.6948 5.63513 20.8632 5.65863 21.0819C5.70564 21.5193 5.77306 22.1575 5.85408 22.9553C6.01621 24.5518 6.23244 26.7838 6.44858 29.3229C6.88372 34.4346 7.30743 40.6665 7.30743 45.4618C7.30743 50.7508 6.79241 57.7759 6.31736 63.1068C5.74594 69.5192 10.8956 75.1237 17.4325 74.8851L44.703 73.8899L71.9692 74.8849C78.5087 75.1236 83.6582 69.5155 83.0859 63.1024C82.6117 57.7887 82.0985 50.7837 82.0985 45.4618C82.0985 40.6274 82.5223 34.3951 82.9573 29.2944C83.1734 26.7606 83.3896 24.5361 83.5517 22.946C83.6327 22.1513 83.7001 21.5159 83.7471 21.0807C83.7706 20.8631 83.789 20.6955 83.8014 20.5832L83.8155 20.4567L83.8189 20.4256L83.8197 20.4184L83.8199 20.4169L83.8199 20.4168L83.8199 20.4167L84.3786 15.4708L79.4101 15.7683L79.6603 19.9469L79.41 15.7683L79.4095 15.7684L79.4069 15.7685L79.3959 15.7692L79.3511 15.7718L79.1727 15.7824C79.0152 15.7916 78.7815 15.8052 78.4789 15.8225C77.8736 15.8572 76.9924 15.9068 75.8919 15.9663C73.6904 16.0854 70.613 16.2442 67.1114 16.403C60.0902 16.7214 51.4293 17.0366 44.703 17.0366C37.9766 17.0366 29.3157 16.7214 22.2945 16.403C18.7929 16.2442 15.7155 16.0854 13.5141 15.9663C12.4135 15.9068 11.5323 15.8572 10.927 15.8225C10.6244 15.8052 10.3908 15.7916 10.2332 15.7824L10.0548 15.7718L10.01 15.7692L9.99907 15.7685L9.99647 15.7684L9.9959 15.7683L9.74561 19.9469Z" stroke="#FFC0AD" stroke-width="8.37209"/>
<path d="M86.7209 14.476L72.4777 4.79746C72.4777 4.79746 55.5323 5.6038 44.3212 5.6038C33.11 5.6038 14.9094 4.3988 14.9094 4.3988L3 14.245" stroke="#FFC0AD" stroke-width="8.37209"/>
<rect x="29.9092" y="32.8674" width="8.36837" height="16.6355" rx="4.18419" fill="#FFC0AD"/>
<rect x="51.2949" y="32.8674" width="8.36837" height="16.6355" rx="4.18419" fill="#FFC0AD"/>
</svg>
