<svg width="90" height="80" viewBox="0 0 90 80" fill="none" xmlns="http://www.w3.org/2000/svg">
<path d="M10.3042 19.9465L10.5544 15.768L5.58871 15.4706L6.14433 20.414L6.14435 20.4141L6.14436 20.4142L6.14454 20.4158L6.14535 20.4231L6.14883 20.4543L6.1629 20.5815C6.17533 20.6945 6.19373 20.8629 6.21723 21.0815C6.26423 21.5189 6.33165 22.1571 6.41268 22.955C6.5748 24.5514 6.79103 26.7834 7.00717 29.3225C7.44231 34.4343 7.86602 40.6661 7.86602 45.4615C7.86602 50.7505 7.351 57.7755 6.87595 63.1064C6.30453 69.5188 11.4542 75.1233 17.9911 74.8847L45.2616 73.8895L72.5278 74.8846C79.0672 75.1232 84.2168 69.5152 83.6445 63.102C83.1703 57.7884 82.6571 50.7834 82.6571 45.4615C82.6571 40.627 83.0809 34.3948 83.5159 29.2941C83.732 26.7602 83.9482 24.5357 84.1103 22.9456C84.1913 22.1509 84.2587 21.5156 84.3057 21.0803C84.3292 20.8627 84.3476 20.6952 84.36 20.5828L84.374 20.4563L84.3775 20.4253L84.3783 20.418L84.3785 20.4165L84.3785 20.4164L84.3785 20.4163L84.9372 15.4705L79.9687 15.768L80.2189 19.9465L79.9686 15.768L79.9681 15.768L79.9655 15.7682L79.9545 15.7688L79.9097 15.7715L79.7313 15.782C79.5738 15.7912 79.3401 15.8048 79.0375 15.8221C78.4322 15.8568 77.551 15.9064 76.4505 15.9659C74.249 16.085 71.1716 16.2439 67.67 16.4027C60.6488 16.7211 51.9879 17.0362 45.2616 17.0362C38.5352 17.0362 29.8743 16.7211 22.8531 16.4027C19.3515 16.2439 16.2741 16.085 14.0727 15.9659C12.9721 15.9064 12.0909 15.8568 11.4856 15.8221C11.183 15.8048 10.9494 15.7912 10.7918 15.782L10.6134 15.7715L10.5686 15.7688L10.5577 15.7682L10.5551 15.768L10.5545 15.768L10.3042 19.9465Z" stroke="#3574D3" stroke-width="8.37209"/>
<path d="M87.279 14.476L73.0358 4.79746C73.0358 4.79746 56.0904 5.6038 44.8793 5.6038C33.6681 5.6038 15.4676 4.3988 15.4676 4.3988L3.55811 14.245" stroke="#3574D3" stroke-width="8.37209"/>
<rect x="30.4678" y="32.8672" width="8.36837" height="16.6355" rx="4.18419" fill="#3574D3"/>
<rect x="51.8521" y="32.8672" width="8.36837" height="16.6355" rx="4.18419" fill="#3574D3"/>
</svg>
