<svg width="90" height="80" viewBox="0 0 90 80" fill="none" xmlns="http://www.w3.org/2000/svg">
<path d="M10.0244 19.9469L10.2746 15.7683L5.30893 15.471L5.86455 20.4143L5.86456 20.4145L5.86458 20.4146L5.86475 20.4161L5.86557 20.4234L5.86905 20.4546L5.88312 20.5819C5.89555 20.6948 5.91394 20.8632 5.93744 21.0819C5.98445 21.5193 6.05187 22.1575 6.13289 22.9553C6.29502 24.5518 6.51125 26.7838 6.72739 29.3229C7.16253 34.4346 7.58624 40.6665 7.58624 45.4618C7.58624 50.7508 7.07121 57.7759 6.59617 63.1068C6.02475 69.5192 11.1744 75.1237 17.7113 74.8851L44.9818 73.8899L72.248 74.8849C78.7875 75.1236 83.937 69.5155 83.3647 63.1024C82.8905 57.7887 82.3773 50.7837 82.3773 45.4618C82.3773 40.6274 82.8011 34.3951 83.2361 29.2944C83.4522 26.7606 83.6684 24.5361 83.8305 22.946C83.9115 22.1513 83.9789 21.5159 84.0259 21.0807C84.0494 20.8631 84.0678 20.6955 84.0802 20.5832L84.0943 20.4567L84.0977 20.4256L84.0985 20.4184L84.0987 20.4169L84.0987 20.4168L84.0987 20.4167L84.6574 15.4708L79.6889 15.7683L79.9391 19.9469L79.6889 15.7683L79.6883 15.7684L79.6857 15.7685L79.6747 15.7692L79.63 15.7718L79.4515 15.7824C79.294 15.7916 79.0603 15.8052 78.7577 15.8225C78.1524 15.8572 77.2712 15.9068 76.1707 15.9663C73.9692 16.0854 70.8919 16.2442 67.3902 16.403C60.369 16.7214 51.7081 17.0366 44.9818 17.0366C38.2555 17.0366 29.5945 16.7214 22.5733 16.403C19.0717 16.2442 15.9944 16.0854 13.7929 15.9663C12.6923 15.9068 11.8111 15.8572 11.2058 15.8225C10.9032 15.8052 10.6696 15.7916 10.512 15.7824L10.3336 15.7718L10.2889 15.7692L10.2779 15.7685L10.2753 15.7684L10.2747 15.7683L10.0244 19.9469Z" stroke="#813405" stroke-width="8.37209"/>
<path d="M87.0002 14.476L72.757 4.79746C72.757 4.79746 55.8116 5.6038 44.6005 5.6038C33.3893 5.6038 15.1887 4.3988 15.1887 4.3988L3.2793 14.245" stroke="#813405" stroke-width="8.37209"/>
<rect x="30.1885" y="32.8674" width="8.36837" height="16.6355" rx="4.18419" fill="#813405"/>
<rect x="51.5742" y="32.8674" width="8.36837" height="16.6355" rx="4.18419" fill="#813405"/>
</svg>
