<svg width="26" height="26" viewBox="0 0 26 26" fill="none" xmlns="http://www.w3.org/2000/svg">
<path d="M21.1049 6.29471V1.7189C21.1049 1.08712 20.5928 0.574951 19.961 0.574951C19.3292 0.574951 18.817 1.08712 18.817 1.7189V6.29471C18.817 6.9265 19.3292 7.43866 19.961 7.43866C20.5928 7.43866 21.1049 6.9265 21.1049 6.29471Z" fill="#386641"/>
<path d="M25.6818 6.29471V1.7189C25.6818 1.08712 25.1697 0.574951 24.5379 0.574951C23.9061 0.574951 23.3939 1.08712 23.3939 1.7189V6.29471C23.3939 6.9265 23.9061 7.43866 24.5379 7.43866C25.1697 7.43866 25.6818 6.9265 25.6818 6.29471Z" fill="#386641"/>
<path d="M11.856 15.4463V10.8705C11.856 10.2387 11.3439 9.72656 10.7121 9.72656C10.0803 9.72656 9.56812 10.2387 9.56812 10.8705V15.4463C9.56812 16.0781 10.0803 16.5903 10.7121 16.5903C11.3439 16.5903 11.856 16.0781 11.856 15.4463Z" fill="#386641"/>
<path d="M16.4318 15.4463V10.8705C16.4318 10.2387 15.9197 9.72656 15.2879 9.72656C14.6561 9.72656 14.1439 10.2387 14.1439 10.8705V15.4463C14.1439 16.0781 14.6561 16.5903 15.2879 16.5903C15.9197 16.5903 16.4318 16.0781 16.4318 15.4463Z" fill="#386641"/>
<path d="M2.60602 24.5992V20.0233C2.60602 19.3916 2.09385 18.8794 1.46207 18.8794C0.83028 18.8794 0.318115 19.3916 0.318115 20.0233V24.5992C0.318115 25.2309 0.83028 25.7431 1.46207 25.7431C2.09385 25.7431 2.60602 25.2309 2.60602 24.5992Z" fill="#386641"/>
<path d="M7.18182 24.5992V20.0233C7.18182 19.3916 6.66966 18.8794 6.03787 18.8794C5.40609 18.8794 4.89392 19.3916 4.89392 20.0233V24.5992C4.89392 25.2309 5.40609 25.7431 6.03787 25.7431C6.66966 25.7431 7.18182 25.2309 7.18182 24.5992Z" fill="#386641"/>
<path d="M3.74995 7.75674C1.68172 7.75674 0 6.07503 0 4.00679C0 1.93855 1.68172 0.256836 3.74995 0.256836C5.81819 0.256836 7.49991 1.93855 7.49991 4.00679C7.49991 6.07503 5.81819 7.75674 3.74995 7.75674ZM3.74995 2.34428C2.83287 2.34428 2.08744 3.08971 2.08744 4.00679C2.08744 4.92387 2.83287 5.6693 3.74995 5.6693C4.66704 5.6693 5.41247 4.92387 5.41247 4.00679C5.41247 3.08971 4.66704 2.34428 3.74995 2.34428Z" fill="#386641"/>
<path d="M22.2501 16.9084C20.1818 16.9084 18.5001 15.2266 18.5001 13.1584C18.5001 11.0902 20.1818 9.40845 22.2501 9.40845C24.3183 9.40845 26 11.0902 26 13.1584C26 15.2266 24.3183 16.9084 22.2501 16.9084ZM22.2501 11.4959C21.333 11.4959 20.5876 12.2413 20.5876 13.1584C20.5876 14.0755 21.333 14.8209 22.2501 14.8209C23.1672 14.8209 23.9126 14.0755 23.9126 13.1584C23.9126 12.2413 23.1672 11.4959 22.2501 11.4959Z" fill="#386641"/>
<path d="M19.9609 25.743H24.5367C25.1685 25.743 25.6807 25.2308 25.6807 24.599C25.6807 23.9672 25.1685 23.4551 24.5367 23.4551H19.9609C19.3291 23.4551 18.817 23.9672 18.817 24.599C18.817 25.2308 19.3291 25.743 19.9609 25.743Z" fill="#386641"/>
<path d="M19.9621 21.1673H24.5379C25.1697 21.1673 25.6819 20.6551 25.6819 20.0233C25.6819 19.3916 25.1697 18.8794 24.5379 18.8794H19.9621C19.3303 18.8794 18.8182 19.3916 18.8182 20.0233C18.8182 20.6551 19.3303 21.1673 19.9621 21.1673Z" fill="#386641"/>
<path d="M6.03788 14.3036H1.46207C0.83028 14.3036 0.318115 14.8158 0.318115 15.4476C0.318115 16.0794 0.830281 16.5916 1.46207 16.5916H6.03788C6.66966 16.5916 7.18183 16.0794 7.18183 15.4476C7.18183 14.8158 6.66966 14.3036 6.03788 14.3036Z" fill="#386641"/>
<path d="M6.03787 9.7265H1.46207C0.83028 9.7265 0.318115 10.2387 0.318115 10.8705C0.318115 11.5022 0.830281 12.0144 1.46207 12.0144H6.03788C6.66966 12.0144 7.18183 11.5022 7.18183 10.8705C7.18183 10.2387 6.66966 9.7265 6.03787 9.7265Z" fill="#386641"/>
</svg>
