<svg width="412" height="93" viewBox="0 0 412 93" fill="none" xmlns="http://www.w3.org/2000/svg">
<path d="M11.7476 23.9204L12.0214 19.3324L6.56827 19.0068L7.18027 24.4352L7.18028 24.4353L7.18031 24.4355L7.18051 24.4374L7.18148 24.446L7.1856 24.4828L7.20219 24.6324C7.21685 24.7652 7.23852 24.963 7.2662 25.2198C7.32158 25.7334 7.40097 26.4827 7.49638 27.4194C7.68729 29.2935 7.9419 31.9137 8.19641 34.8944C8.70859 40.8929 9.20814 48.2145 9.20814 53.8536C9.20814 60.2626 8.56352 68.8274 7.9919 75.1363C7.35357 82.1814 13.0106 88.3402 20.1891 88.079L52.8833 86.8895L85.5729 88.0788C92.7548 88.3401 98.411 82.1761 97.7716 75.1307C97.2009 68.842 96.5585 60.3028 96.5585 53.8536C96.5585 48.1687 97.0581 40.8466 97.5702 34.8611C97.8246 31.8864 98.0792 29.2751 98.2701 27.4083C98.3655 26.4754 98.4448 25.7294 98.5002 25.2182C98.5279 24.9627 98.5495 24.7659 98.5642 24.6338L98.5808 24.485L98.5849 24.4485L98.5858 24.4399L98.5861 24.4381L98.5861 24.4379L98.5861 24.4378L99.2015 19.0066L93.7452 19.3324L94.0191 23.9204C93.7452 19.3324 93.7452 19.3324 93.7451 19.3324L93.7444 19.3324L93.7413 19.3326L93.7283 19.3334L93.6756 19.3365L93.4654 19.3488C93.2799 19.3597 93.0048 19.3756 92.6485 19.396C91.9359 19.4367 90.8986 19.4949 89.6031 19.5647C87.0118 19.7045 83.3895 19.8909 79.2678 20.0772C71.0047 20.4508 60.8066 20.8209 52.8833 20.8209C44.96 20.8209 34.7619 20.4508 26.4988 20.0772C22.3771 19.8909 18.7548 19.7045 16.1635 19.5647C14.868 19.4949 13.8308 19.4367 13.1182 19.396C12.7619 19.3756 12.4868 19.3597 12.3012 19.3488L12.0911 19.3365L12.0383 19.3334L12.0253 19.3326L12.0223 19.3324L12.0216 19.3324C12.0215 19.3324 12.0214 19.3324 11.7476 23.9204Z" stroke="#4A6C6F" stroke-width="9.19242"/>
<path d="M102.326 17.5024L85.5659 6.14787C85.5659 6.14787 65.6255 7.09383 52.4329 7.09383C39.2403 7.09383 17.8229 5.68018 17.8229 5.68018L3.80859 17.2314" stroke="#4A6C6F" stroke-width="9.19242"/>
<rect x="35.4722" y="39.0781" width="9.84741" height="19.5161" rx="4.9237" fill="#4A6C6F"/>
<rect x="60.6377" y="39.0786" width="9.84741" height="19.5161" rx="4.9237" fill="#4A6C6F"/>
<path d="M144.113 80.8656C139.601 80.8656 136.008 80.0262 133.332 78.3474C130.656 76.6686 128.741 74.2553 127.587 71.1075C126.433 67.9598 125.856 64.2349 125.856 59.9329V36.0885C125.856 31.7866 126.433 28.1142 127.587 25.0713C128.741 21.976 130.656 19.6152 133.332 17.9888C136.008 16.3625 139.601 15.5493 144.113 15.5493C148.73 15.5493 152.35 16.3625 154.973 17.9888C157.649 19.6152 159.563 21.976 160.718 25.0713C161.924 28.1142 162.528 31.7866 162.528 36.0885V60.0116C162.528 64.2611 161.924 67.9598 160.718 71.1075C159.563 74.2028 157.649 76.6161 154.973 78.3474C152.35 80.0262 148.73 80.8656 144.113 80.8656ZM144.113 72.288C146.054 72.288 147.471 71.8682 148.363 71.0288C149.307 70.1894 149.937 69.0352 150.251 67.5663C150.566 66.0973 150.723 64.4972 150.723 62.7659V33.4129C150.723 31.6292 150.566 30.0291 150.251 28.6126C149.937 27.1961 149.307 26.0943 148.363 25.3074C147.471 24.468 146.054 24.0483 144.113 24.0483C142.277 24.0483 140.887 24.468 139.942 25.3074C138.998 26.0943 138.368 27.1961 138.054 28.6126C137.739 30.0291 137.581 31.6292 137.581 33.4129V62.7659C137.581 64.4972 137.713 66.0973 137.975 67.5663C138.29 69.0352 138.919 70.1894 139.864 71.0288C140.808 71.8682 142.224 72.288 144.113 72.288ZM171.143 80V16.2575H189.872C193.702 16.2575 196.797 16.9658 199.158 18.3823C201.571 19.7988 203.329 21.8711 204.431 24.5992C205.585 27.2748 206.162 30.5275 206.162 34.3573C206.162 38.5018 205.454 41.8595 204.037 44.4301C202.621 46.9484 200.627 48.7846 198.056 49.9387C195.538 51.0929 192.548 51.67 189.085 51.67H182.79V80H171.143ZM182.79 43.4858H187.196C189.295 43.4858 190.921 43.1973 192.076 42.6202C193.282 41.9906 194.095 41.02 194.515 39.7085C194.987 38.3444 195.223 36.5345 195.223 34.2786C195.223 31.9702 195.04 30.1078 194.672 28.6913C194.358 27.2223 193.623 26.1468 192.469 25.4648C191.367 24.7828 189.61 24.4418 187.196 24.4418H182.79V43.4858ZM212.642 80V16.2575H239.398V24.4418H224.289V42.7776H236.171V50.8831H224.289V71.9732H239.555V80H212.642ZM246.302 80V16.2575H254.408L269.91 52.6144V16.2575H279.511V80H271.799L256.218 41.9119V80H246.302ZM289.184 80V16.2575H304.845C307.678 16.2575 310.222 16.5199 312.478 17.0445C314.786 17.5691 316.754 18.461 318.38 19.7201C320.059 20.9267 321.344 22.5793 322.236 24.6778C323.128 26.7764 323.574 29.4257 323.574 32.626C323.574 35.1967 323.207 37.4001 322.472 39.2363C321.79 41.0725 320.767 42.5415 319.403 43.6432C318.039 44.6925 316.334 45.4007 314.288 45.7679C316.806 46.1876 318.878 47.0795 320.505 48.4436C322.184 49.7551 323.416 51.4864 324.203 53.6374C325.043 55.7884 325.462 58.3853 325.462 61.4281C325.462 64.471 325.069 67.1728 324.282 69.5336C323.548 71.842 322.42 73.7831 320.898 75.357C319.429 76.8785 317.567 78.0326 315.311 78.8196C313.107 79.6065 310.511 80 307.52 80H289.184ZM300.831 71.8158H305.238C308.753 71.8158 311.14 70.9764 312.399 69.2976C313.658 67.5663 314.288 64.9169 314.288 61.3494C314.288 58.7787 313.973 56.7065 313.344 55.1326C312.766 53.5062 311.77 52.2996 310.353 51.5126C308.989 50.7257 307.153 50.3322 304.845 50.3322H300.831V71.8158ZM300.831 42.3054H304.766C307.074 42.3054 308.858 41.9644 310.117 41.2824C311.376 40.6003 312.242 39.5511 312.714 38.1346C313.239 36.7181 313.501 34.9343 313.501 32.7834C313.501 30.5275 313.107 28.7962 312.321 27.5895C311.586 26.3304 310.458 25.491 308.937 25.0713C307.415 24.5992 305.474 24.3631 303.113 24.3631H300.831V42.3054ZM350.302 80.8656C345.79 80.8656 342.196 80.0262 339.52 78.3474C336.845 76.6686 334.93 74.2553 333.776 71.1075C332.622 67.9598 332.045 64.2349 332.045 59.9329V36.0885C332.045 31.7866 332.622 28.1142 333.776 25.0713C334.93 21.976 336.845 19.6152 339.52 17.9888C342.196 16.3625 345.79 15.5493 350.302 15.5493C354.918 15.5493 358.538 16.3625 361.161 17.9888C363.837 19.6152 365.752 21.976 366.906 25.0713C368.113 28.1142 368.716 31.7866 368.716 36.0885V60.0116C368.716 64.2611 368.113 67.9598 366.906 71.1075C365.752 74.2028 363.837 76.6161 361.161 78.3474C358.538 80.0262 354.918 80.8656 350.302 80.8656ZM350.302 72.288C352.243 72.288 353.659 71.8682 354.551 71.0288C355.495 70.1894 356.125 69.0352 356.44 67.5663C356.755 66.0973 356.912 64.4972 356.912 62.7659V33.4129C356.912 31.6292 356.755 30.0291 356.44 28.6126C356.125 27.1961 355.495 26.0943 354.551 25.3074C353.659 24.468 352.243 24.0483 350.302 24.0483C348.465 24.0483 347.075 24.468 346.131 25.3074C345.186 26.0943 344.557 27.1961 344.242 28.6126C343.927 30.0291 343.77 31.6292 343.77 33.4129V62.7659C343.77 64.4972 343.901 66.0973 344.163 67.5663C344.478 69.0352 345.108 70.1894 346.052 71.0288C346.996 71.8682 348.413 72.288 350.302 72.288ZM372.703 80L385.53 46.1614L373.097 16.2575H383.956L392.219 36.0098L399.459 16.2575H409.532L397.256 48.3649L410.476 80H399.617L390.567 58.5951L382.697 80H372.703Z" fill="#4A6C6F"/>
</svg>
