<svg width="89" height="80" viewBox="0 0 89 80" fill="none" xmlns="http://www.w3.org/2000/svg">
<path d="M9.46631 19.9469L9.71651 15.7683L4.75082 15.471L5.30644 20.4143L5.30646 20.4145L5.30647 20.4146L5.30664 20.4161L5.30746 20.4234L5.31094 20.4546L5.32501 20.5819C5.33744 20.6948 5.35584 20.8632 5.37934 21.0819C5.42634 21.5193 5.49376 22.1575 5.57479 22.9553C5.73691 24.5518 5.95314 26.7838 6.16928 29.3229C6.60442 34.4346 7.02813 40.6665 7.02813 45.4618C7.02813 50.7508 6.51311 57.7759 6.03806 63.1068C5.46664 69.5192 10.6163 75.1237 17.1532 74.8851L44.4237 73.8899L71.6899 74.8849C78.2294 75.1236 83.3789 69.5155 82.8066 63.1024C82.3324 57.7887 81.8192 50.7837 81.8192 45.4618C81.8192 40.6274 82.243 34.3951 82.678 29.2944C82.8941 26.7606 83.1103 24.5361 83.2724 22.946C83.3534 22.1513 83.4208 21.5159 83.4678 21.0807C83.4913 20.8631 83.5097 20.6955 83.5221 20.5832L83.5362 20.4567L83.5396 20.4256L83.5404 20.4184L83.5406 20.4169L83.5406 20.4168L83.5406 20.4167L84.0993 15.4708L79.1308 15.7683L79.381 19.9469L79.1307 15.7683L79.1302 15.7684L79.1276 15.7685L79.1166 15.7692L79.0718 15.7718L78.8934 15.7824C78.7359 15.7916 78.5022 15.8052 78.1996 15.8225C77.5943 15.8572 76.7131 15.9068 75.6126 15.9663C73.4111 16.0854 70.3338 16.2442 66.8321 16.403C59.8109 16.7214 51.15 17.0366 44.4237 17.0366C37.6973 17.0366 29.0364 16.7214 22.0152 16.403C18.5136 16.2442 15.4363 16.0854 13.2348 15.9663C12.1342 15.9068 11.253 15.8572 10.6477 15.8225C10.3451 15.8052 10.1115 15.7916 9.95391 15.7824L9.7755 15.7718L9.73075 15.7692L9.71977 15.7685L9.71717 15.7684L9.7166 15.7683L9.46631 19.9469Z" stroke="#ED6A5A" stroke-width="8.37209"/>
<path d="M86.4421 14.476L72.1989 4.79746C72.1989 4.79746 55.2535 5.6038 44.0423 5.6038C32.8312 5.6038 14.6306 4.3988 14.6306 4.3988L2.72119 14.245" stroke="#ED6A5A" stroke-width="8.37209"/>
<rect x="29.6301" y="32.8674" width="8.36837" height="16.6355" rx="4.18419" fill="#ED6A5A"/>
<rect x="51.0159" y="32.8674" width="8.36837" height="16.6355" rx="4.18419" fill="#ED6A5A"/>
</svg>
