<svg width="135" height="50" viewBox="0 0 135 50" fill="none" xmlns="http://www.w3.org/2000/svg">
<path d="M5.11328 19.5042L5.20294 18.0069L3.42357 17.9003L3.62266 19.6717L3.62267 19.6718L3.62267 19.6718L3.62272 19.6722L3.62297 19.6745L3.62405 19.6841L3.62843 19.7238L3.6454 19.88C3.66009 20.0166 3.68118 20.2162 3.70652 20.4658C3.75724 20.9652 3.82488 21.6635 3.89249 22.4577C4.02874 24.0583 4.16089 26.0041 4.16089 27.4981C4.16089 27.644 4.15963 27.7949 4.15719 27.9501C4.08311 32.6645 7.76606 36.8962 12.7022 36.7161L16.0655 36.5933L19.4246 36.7159C24.3625 36.8961 28.0464 32.6616 27.9737 27.9464C27.9714 27.7927 27.9701 27.643 27.9701 27.4981C27.9701 25.9919 28.1023 24.0459 28.2385 22.4488C28.3061 21.6562 28.3738 20.9604 28.4245 20.463C28.4498 20.2144 28.4709 20.0157 28.4856 19.8797L28.5025 19.7243L28.5069 19.6849L28.508 19.6753L28.5082 19.673L28.5083 19.6726L28.5083 19.6726L28.5083 19.6725L28.7085 17.9003L26.9281 18.0069L27.0178 19.5042L26.9281 18.0069L26.9279 18.0069L26.9271 18.007L26.9237 18.0072L26.9097 18.008L26.854 18.0113L26.6368 18.0238C26.4474 18.0347 26.1715 18.0502 25.8269 18.0689C25.1376 18.1061 24.174 18.1559 23.0776 18.2056C20.8784 18.3053 18.1684 18.4039 16.0655 18.4039C13.9626 18.4039 11.2527 18.3053 9.05344 18.2056C7.95703 18.1559 6.99345 18.1061 6.30413 18.0689C5.95954 18.0502 5.68367 18.0347 5.4942 18.0238L5.27708 18.0113L5.2213 18.008L5.20734 18.0072L5.20393 18.007L5.20313 18.0069L5.20296 18.0069L5.11328 19.5042Z" stroke="#4A6C6F" stroke-width="3"/>
<path d="M29.23 17.7901L24.7676 14.7578C24.7676 14.7578 19.4585 15.0104 15.946 15.0104C12.4336 15.0104 6.73126 14.6329 6.73126 14.6329L3 17.7177" stroke="#4A6C6F" stroke-width="3"/>
<rect x="11.4309" y="23.5522" width="2.62183" height="5.21193" rx="1.31092" fill="#4A6C6F"/>
<rect x="18.1309" y="23.5522" width="2.62183" height="5.21193" rx="1.31092" fill="#4A6C6F"/>
<path d="M52.1777 25.7487C52.1777 26.8633 52.0392 27.8789 51.7622 28.7957C51.4852 29.7058 51.0631 30.4906 50.4959 31.1501C49.9353 31.8096 49.2231 32.3174 48.3591 32.6735C47.4952 33.0231 46.4729 33.1979 45.2924 33.1979C44.1119 33.1979 43.0897 33.0231 42.2257 32.6735C41.3618 32.3174 40.6462 31.8096 40.079 31.1501C39.5185 30.4906 39.0997 29.7025 38.8227 28.7858C38.5457 27.869 38.4072 26.8501 38.4072 25.729C38.4072 24.2319 38.6512 22.9294 39.1392 21.8214C39.6339 20.7068 40.3923 19.8429 41.4145 19.2295C42.4368 18.6162 43.736 18.3095 45.3122 18.3095C46.8818 18.3095 48.1712 18.6162 49.1802 19.2295C50.1959 19.8429 50.9477 20.7068 51.4357 21.8214C51.9304 22.936 52.1777 24.2451 52.1777 25.7487ZM41.6223 25.7487C41.6223 26.7578 41.7476 27.6283 41.9982 28.3604C42.2554 29.0858 42.6544 29.6464 43.1952 30.0421C43.736 30.4312 44.4351 30.6258 45.2924 30.6258C46.163 30.6258 46.8686 30.4312 47.4094 30.0421C47.9502 29.6464 48.3426 29.0858 48.5867 28.3604C48.8373 27.6283 48.9626 26.7578 48.9626 25.7487C48.9626 24.2319 48.679 23.0382 48.1118 22.1676C47.5446 21.2971 46.6114 20.8618 45.3122 20.8618C44.4483 20.8618 43.7426 21.0597 43.1952 21.4554C42.6544 21.8445 42.2554 22.405 41.9982 23.1371C41.7476 23.8626 41.6223 24.7331 41.6223 25.7487ZM61.2935 21.7324C62.5399 21.7324 63.5457 22.2171 64.3107 23.1866C65.0823 24.156 65.4681 25.5773 65.4681 27.4503C65.4681 28.7033 65.2868 29.7585 64.9241 30.6159C64.5613 31.4667 64.0601 32.1097 63.4204 32.5449C62.7807 32.9802 62.0453 33.1979 61.2143 33.1979C60.6801 33.1979 60.2218 33.1319 59.8393 33C59.4568 32.8615 59.1303 32.6867 58.8599 32.4757C58.5895 32.2581 58.3554 32.0272 58.1575 31.7832H57.9993C58.052 32.047 58.0916 32.3174 58.118 32.5944C58.1443 32.8714 58.1575 33.1418 58.1575 33.4056V37.8671H55.1403V21.9401H57.5937L58.019 23.3745H58.1575C58.3554 23.0777 58.5961 22.804 58.8797 22.5534C59.1633 22.3028 59.5029 22.105 59.8986 21.9599C60.3009 21.8082 60.7659 21.7324 61.2935 21.7324ZM60.324 24.1461C59.7964 24.1461 59.3776 24.255 59.0676 24.4726C58.7577 24.6902 58.5302 25.0167 58.3851 25.452C58.2466 25.8872 58.1707 26.4379 58.1575 27.104V27.4305C58.1575 28.1427 58.2235 28.7462 58.3554 29.2408C58.4939 29.7354 58.7214 30.1114 59.038 30.3686C59.3611 30.6258 59.803 30.7544 60.3636 30.7544C60.8252 30.7544 61.2044 30.6258 61.5012 30.3686C61.798 30.1114 62.0189 29.7354 62.164 29.2408C62.3157 28.7396 62.3916 28.1296 62.3916 27.4107C62.3916 26.3291 62.2234 25.5146 61.887 24.9672C61.5507 24.4198 61.0297 24.1461 60.324 24.1461ZM72.7242 21.7324C73.7464 21.7324 74.6268 21.9302 75.3655 22.3259C76.1041 22.715 76.6746 23.2822 77.0769 24.0274C77.4792 24.7727 77.6803 25.6828 77.6803 26.7578V28.2219H70.5478C70.5808 29.0726 70.8347 29.742 71.3095 30.2301C71.791 30.7115 72.4571 30.9522 73.3078 30.9522C74.0135 30.9522 74.6598 30.8797 75.2468 30.7346C75.8337 30.5895 76.4372 30.3719 77.0571 30.0817V32.4163C76.5097 32.6867 75.9359 32.8846 75.3358 33.0099C74.7422 33.1352 74.0201 33.1979 73.1693 33.1979C72.0614 33.1979 71.0787 32.9934 70.2213 32.5845C69.3706 32.1756 68.7012 31.5524 68.2131 30.7148C67.7317 29.8772 67.491 28.822 67.491 27.5492C67.491 26.2566 67.7086 25.1816 68.1439 24.3242C68.5858 23.4603 69.1991 22.8139 69.9839 22.3853C70.7687 21.95 71.6821 21.7324 72.7242 21.7324ZM72.7439 23.879C72.157 23.879 71.6689 24.067 71.2798 24.4429C70.8973 24.8188 70.6764 25.4091 70.617 26.2137H74.8511C74.8445 25.7652 74.762 25.3662 74.6037 25.0167C74.4521 24.6672 74.2212 24.3902 73.9113 24.1857C73.6079 23.9813 73.2188 23.879 72.7439 23.879ZM86.6181 21.7324C87.7986 21.7324 88.7483 22.0555 89.4671 22.7018C90.186 23.3415 90.5454 24.3704 90.5454 25.7883V33H87.5282V26.5401C87.5282 25.7487 87.3831 25.1519 87.0929 24.7496C86.8093 24.3473 86.3609 24.1461 85.7475 24.1461C84.8242 24.1461 84.1944 24.4594 83.8581 25.0859C83.5217 25.7125 83.3535 26.616 83.3535 27.7965V33H80.3363V21.9401H82.6413L83.0469 23.3547H83.215C83.4525 22.9722 83.7459 22.6623 84.0955 22.4248C84.4516 22.1874 84.844 22.0126 85.2727 21.9005C85.708 21.7884 86.1564 21.7324 86.6181 21.7324ZM94.0917 18.5371H98.5929C100.519 18.5371 101.976 18.8074 102.965 19.3482C103.955 19.889 104.449 20.8387 104.449 22.1973C104.449 22.7447 104.36 23.2393 104.182 23.6812C104.011 24.1231 103.76 24.4858 103.43 24.7694C103.101 25.053 102.698 25.2376 102.223 25.3234V25.4223C102.705 25.5212 103.14 25.6927 103.529 25.9367C103.918 26.1741 104.228 26.5237 104.459 26.9853C104.697 27.4404 104.815 28.0471 104.815 28.8055C104.815 29.6827 104.601 30.4345 104.172 31.0611C103.744 31.6876 103.13 32.169 102.332 32.5054C101.541 32.8351 100.598 33 99.503 33H94.0917V18.5371ZM97.1584 24.2649H98.9391C99.8294 24.2649 100.446 24.1264 100.789 23.8494C101.132 23.5658 101.303 23.1503 101.303 22.6029C101.303 22.0489 101.099 21.6532 100.69 21.4158C100.288 21.1718 99.6481 21.0498 98.7709 21.0498H97.1584V24.2649ZM97.1584 26.6984V30.4675H99.1567C100.08 30.4675 100.723 30.2894 101.086 29.9333C101.449 29.5772 101.63 29.099 101.63 28.4989C101.63 28.1427 101.551 27.8295 101.392 27.5591C101.234 27.2887 100.967 27.0776 100.591 26.926C100.222 26.7743 99.7107 26.6984 99.0578 26.6984H97.1584ZM117.72 27.4503C117.72 28.3736 117.595 29.1914 117.344 29.9036C117.1 30.6159 116.741 31.2193 116.266 31.714C115.797 32.202 115.23 32.5713 114.564 32.8219C113.905 33.0725 113.159 33.1979 112.328 33.1979C111.55 33.1979 110.835 33.0725 110.182 32.8219C109.535 32.5713 108.972 32.202 108.49 31.714C108.015 31.2193 107.646 30.6159 107.382 29.9036C107.125 29.1914 106.996 28.3736 106.996 27.4503C106.996 26.2236 107.214 25.1849 107.649 24.3341C108.085 23.4833 108.705 22.837 109.509 22.3952C110.314 21.9533 111.273 21.7324 112.388 21.7324C113.423 21.7324 114.34 21.9533 115.138 22.3952C115.943 22.837 116.572 23.4833 117.027 24.3341C117.489 25.1849 117.72 26.2236 117.72 27.4503ZM110.073 27.4503C110.073 28.1757 110.152 28.7858 110.31 29.2804C110.469 29.775 110.716 30.1476 111.052 30.3983C111.389 30.6489 111.827 30.7742 112.368 30.7742C112.902 30.7742 113.334 30.6489 113.664 30.3983C114 30.1476 114.244 29.775 114.396 29.2804C114.554 28.7858 114.633 28.1757 114.633 27.4503C114.633 26.7182 114.554 26.1115 114.396 25.63C114.244 25.142 114 24.776 113.664 24.532C113.328 24.2879 112.889 24.1659 112.348 24.1659C111.55 24.1659 110.97 24.4396 110.607 24.987C110.251 25.5344 110.073 26.3555 110.073 27.4503ZM122.681 27.3513L119.12 21.9401H122.542L124.689 25.4619L126.856 21.9401H130.278L126.677 27.3513L130.447 33H127.014L124.689 29.2111L122.354 33H118.932L122.681 27.3513Z" fill="#4A6C6F"/>
</svg>
