<svg width="219" height="80" viewBox="0 0 219 80" fill="none" xmlns="http://www.w3.org/2000/svg">
<path d="M6.72412 30.3148L6.87355 27.8192L3.90793 27.6417L4.23976 30.5939L4.23976 30.594L4.23977 30.594L4.23986 30.5949L4.24031 30.5988L4.24222 30.616L4.24996 30.686C4.25681 30.7482 4.26695 30.841 4.2799 30.9616C4.30582 31.2027 4.34301 31.5547 4.3877 31.9949C4.47714 32.8756 4.59643 34.1069 4.71566 35.5075C4.95583 38.3289 5.18918 41.7631 5.18918 44.4024C5.18918 46.2903 5.0695 48.5954 4.91153 50.8045C4.52685 56.1835 8.83197 60.9147 14.3495 60.7134L26.0252 60.2873L37.6967 60.7132C43.2165 60.9147 47.5213 56.1801 47.1373 50.8007C46.9801 48.5997 46.8612 46.2993 46.8612 44.4024C46.8612 41.7415 47.0946 38.3071 47.3347 35.4919C47.4539 34.0941 47.5732 32.867 47.6626 31.9898C47.7073 31.5514 47.7445 31.201 47.7704 30.961C47.7833 30.841 47.7935 30.7487 47.8003 30.6868L47.808 30.6172L47.8099 30.6002L47.8104 30.5962L47.8105 30.5954L47.8105 30.5954L47.8105 30.5953L48.1441 27.6416L45.1769 27.8192L45.3263 30.3148L45.1768 27.8192L45.1765 27.8192L45.1751 27.8193L45.1691 27.8197L45.1444 27.8212L45.046 27.827C44.9591 27.832 44.8302 27.8396 44.6632 27.8491C44.3292 27.8682 43.8428 27.8956 43.2354 27.9285C42.0203 27.9942 40.3218 28.0819 38.3891 28.1695C34.513 28.3453 29.7345 28.5191 26.0252 28.5191C22.3159 28.5191 17.5374 28.3453 13.6613 28.1695C11.7286 28.0819 10.0301 27.9942 8.815 27.9285C8.20757 27.8956 7.72124 27.8682 7.38722 27.8491C7.22021 27.8396 7.0913 27.832 7.00439 27.827L6.906 27.8212L6.88135 27.8197L6.87532 27.8193L6.8739 27.8192L6.87359 27.8192L6.72412 30.3148Z" stroke="#4A6C6F" stroke-width="5"/>
<path d="M49.225 27.2941L41.3609 21.9502C41.3609 21.9502 32.0048 22.3954 25.8147 22.3954C19.6247 22.3954 9.57559 21.7301 9.57559 21.7301L3 27.1665" stroke="#4A6C6F" stroke-width="5"/>
<rect x="17.8574" y="37.4486" width="4.62045" height="9.18497" rx="2.31022" fill="#4A6C6F"/>
<rect x="29.665" y="37.4486" width="4.62045" height="9.18497" rx="2.31022" fill="#4A6C6F"/>
<path d="M82.5019 40.738C82.5019 42.6227 82.2677 44.3402 81.7993 45.8904C81.3309 47.4294 80.6171 48.7565 79.658 49.8718C78.7101 50.987 77.5056 51.8457 76.0447 52.448C74.5837 53.039 72.8551 53.3346 70.8588 53.3346C68.8626 53.3346 67.134 53.039 65.673 52.448C64.212 51.8457 63.002 50.987 62.0429 49.8718C61.095 48.7565 60.3868 47.4238 59.9184 45.8737C59.45 44.3235 59.2158 42.6004 59.2158 40.7045C59.2158 38.173 59.6284 35.9704 60.4537 34.0968C61.2901 32.212 62.5726 30.7511 64.3013 29.7139C66.0299 28.6767 68.2269 28.1582 70.8923 28.1582C73.5466 28.1582 75.7268 28.6767 77.4331 29.7139C79.1506 30.7511 80.422 32.212 81.2472 34.0968C82.0837 35.9815 82.5019 38.1953 82.5019 40.738ZM64.6526 40.738C64.6526 42.4443 64.8645 43.9164 65.2882 45.1543C65.7232 46.3811 66.3979 47.329 67.3124 47.9982C68.2269 48.6562 69.409 48.9852 70.8588 48.9852C72.3309 48.9852 73.5242 48.6562 74.4387 47.9982C75.3532 47.329 76.0168 46.3811 76.4294 45.1543C76.8532 43.9164 77.0651 42.4443 77.0651 40.738C77.0651 38.173 76.5856 36.1544 75.6265 34.6823C74.6674 33.2102 73.0893 32.4741 70.8923 32.4741C69.4313 32.4741 68.238 32.8087 67.3124 33.4778C66.3979 34.1358 65.7232 35.0838 65.2882 36.3217C64.8645 37.5484 64.6526 39.0205 64.6526 40.738ZM97.9169 33.9462C100.025 33.9462 101.725 34.7659 103.019 36.4053C104.324 38.0447 104.976 40.448 104.976 43.6153C104.976 45.7342 104.67 47.5186 104.056 48.9684C103.443 50.4071 102.595 51.4944 101.514 52.2305C100.432 52.9665 99.1882 53.3346 97.783 53.3346C96.8797 53.3346 96.1046 53.223 95.4578 53C94.8109 52.7658 94.2589 52.4703 93.8017 52.1134C93.3444 51.7454 92.9485 51.355 92.6139 50.9424H92.3463C92.4355 51.3885 92.5024 51.8457 92.547 52.3141C92.5916 52.7825 92.6139 53.2398 92.6139 53.6859V61.2304H87.5117V34.2975H91.6604L92.3797 36.7232H92.6139C92.9485 36.2213 93.3556 35.7585 93.8351 35.3347C94.3147 34.9109 94.889 34.5763 95.5582 34.331C96.2384 34.0745 97.0247 33.9462 97.9169 33.9462ZM96.2775 38.028C95.3853 38.028 94.6771 38.212 94.153 38.58C93.6288 38.948 93.244 39.5001 92.9987 40.2361C92.7645 40.9722 92.6362 41.9034 92.6139 43.0298V43.5818C92.6139 44.7863 92.7255 45.8067 92.9485 46.6432C93.1827 47.4796 93.5675 48.1153 94.1028 48.5502C94.6492 48.9852 95.3964 49.2026 96.3444 49.2026C97.1251 49.2026 97.7663 48.9852 98.2682 48.5502C98.77 48.1153 99.1436 47.4796 99.389 46.6432C99.6455 45.7956 99.7737 44.764 99.7737 43.5484C99.7737 41.7194 99.4894 40.3421 98.9206 39.4164C98.3518 38.4908 97.4708 38.028 96.2775 38.028ZM117.246 33.9462C118.975 33.9462 120.464 34.2808 121.713 34.9499C122.962 35.6079 123.927 36.567 124.607 37.8272C125.287 39.0875 125.627 40.6265 125.627 42.4443V44.9201H113.566C113.622 46.3588 114.051 47.4907 114.854 48.316C115.668 49.1301 116.795 49.5372 118.233 49.5372C119.427 49.5372 120.52 49.4145 121.512 49.1692C122.505 48.9238 123.525 48.5558 124.573 48.0651V52.013C123.648 52.4703 122.678 52.8048 121.663 53.0167C120.659 53.2286 119.438 53.3346 117.999 53.3346C116.126 53.3346 114.464 52.9888 113.014 52.2974C111.575 51.606 110.443 50.5521 109.618 49.1357C108.804 47.7194 108.397 45.935 108.397 43.7826C108.397 41.5967 108.765 39.7789 109.501 38.3291C110.248 36.8681 111.285 35.7752 112.613 35.0503C113.94 34.3142 115.484 33.9462 117.246 33.9462ZM117.28 37.5763C116.287 37.5763 115.462 37.8942 114.804 38.5298C114.157 39.1655 113.784 40.1637 113.683 41.5242H120.843C120.832 40.7659 120.692 40.0912 120.425 39.5001C120.168 38.909 119.778 38.4406 119.254 38.0949C118.741 37.7492 118.083 37.5763 117.28 37.5763ZM140.741 33.9462C142.737 33.9462 144.343 34.4927 145.559 35.5856C146.775 36.6674 147.382 38.4072 147.382 40.8049V53H142.28V42.0763C142.28 40.738 142.035 39.7287 141.544 39.0484C141.065 38.3681 140.306 38.028 139.269 38.028C137.708 38.028 136.643 38.5577 136.074 39.6172C135.505 40.6767 135.221 42.2045 135.221 44.2008V53H130.119V34.2975H134.016L134.702 36.6897H134.987C135.388 36.0429 135.884 35.5187 136.475 35.1172C137.078 34.7157 137.741 34.4202 138.466 34.2306C139.202 34.041 139.961 33.9462 140.741 33.9462ZM153.379 28.5429H160.991C164.247 28.5429 166.712 29.0002 168.385 29.9146C170.058 30.8291 170.894 32.4351 170.894 34.7325C170.894 35.6581 170.743 36.4945 170.442 37.2417C170.152 37.9889 169.729 38.6023 169.171 39.0819C168.613 39.5614 167.933 39.8737 167.13 40.0187V40.186C167.944 40.3532 168.68 40.6432 169.338 41.0558C169.996 41.4573 170.52 42.0484 170.911 42.8291C171.312 43.5986 171.513 44.6246 171.513 45.9071C171.513 47.3904 171.151 48.6617 170.426 49.7212C169.701 50.7807 168.664 51.5948 167.314 52.1636C165.976 52.7212 164.381 53 162.53 53H153.379V28.5429ZM158.565 38.2287H161.576C163.082 38.2287 164.125 37.9945 164.704 37.5261C165.284 37.0466 165.574 36.344 165.574 35.4183C165.574 34.4815 165.229 33.8124 164.537 33.4109C163.857 32.9983 162.775 32.792 161.292 32.792H158.565V38.2287ZM158.565 42.3439V48.7175H161.944C163.506 48.7175 164.593 48.4164 165.206 47.8142C165.82 47.2119 166.126 46.4034 166.126 45.3885C166.126 44.7863 165.993 44.2566 165.725 43.7993C165.457 43.3421 165.006 42.9852 164.37 42.7287C163.745 42.4722 162.881 42.3439 161.777 42.3439H158.565ZM193.335 43.6153C193.335 45.1766 193.123 46.5595 192.699 47.764C192.287 48.9684 191.679 49.9889 190.876 50.8253C190.084 51.6506 189.125 52.2751 187.999 52.6989C186.883 53.1227 185.623 53.3346 184.218 53.3346C182.902 53.3346 181.692 53.1227 180.588 52.6989C179.495 52.2751 178.541 51.6506 177.727 50.8253C176.924 49.9889 176.3 48.9684 175.854 47.764C175.419 46.5595 175.201 45.1766 175.201 43.6153C175.201 41.541 175.569 39.7845 176.305 38.3458C177.041 36.9072 178.09 35.8142 179.45 35.067C180.811 34.3198 182.434 33.9462 184.318 33.9462C186.069 33.9462 187.619 34.3198 188.969 35.067C190.329 35.8142 191.394 36.9072 192.164 38.3458C192.945 39.7845 193.335 41.541 193.335 43.6153ZM180.404 43.6153C180.404 44.8421 180.538 45.8737 180.805 46.7101C181.073 47.5465 181.491 48.1766 182.06 48.6004C182.629 49.0242 183.37 49.2361 184.285 49.2361C185.188 49.2361 185.919 49.0242 186.476 48.6004C187.045 48.1766 187.458 47.5465 187.714 46.7101C187.982 45.8737 188.116 44.8421 188.116 43.6153C188.116 42.3774 187.982 41.3514 187.714 40.5373C187.458 39.712 187.045 39.093 186.476 38.6804C185.908 38.2678 185.166 38.0614 184.251 38.0614C182.902 38.0614 181.921 38.5243 181.307 39.4499C180.705 40.3755 180.404 41.764 180.404 43.6153ZM201.724 43.448L195.702 34.2975H201.49L205.12 40.2529L208.783 34.2975H214.572L208.482 43.448L214.856 53H209.051L205.12 46.593L201.172 53H195.384L201.724 43.448Z" fill="#4A6C6F"/>
</svg>
